<?xml version="1.0" encoding="utf-8"?>
<!-- Generator: Adobe Illustrator 24.0.0, SVG Export Plug-In . SVG Version: 6.00 Build 0)  -->
<svg version="1.1" id="Camada_1" xmlns="http://www.w3.org/2000/svg" xmlns:xlink="http://www.w3.org/1999/xlink" x="0px" y="0px"
	 viewBox="0 0 545.4 101.1" style="enable-background:new 0 0 545.4 101.1;" xml:space="preserve">
<style type="text/css">
	.st0{fill:#FFFFFF;}
	.st1{fill-rule:evenodd;clip-rule:evenodd;fill:#FFFFFF;}
	.st2{clip-path:url(#SVGID_2_);fill-rule:evenodd;clip-rule:evenodd;fill:#FFFFFF;}
	.st3{clip-path:url(#SVGID_4_);fill:url(#SVGID_5_);}
	.st4{clip-path:url(#SVGID_7_);fill:url(#SVGID_8_);}
	.st5{clip-path:url(#SVGID_10_);fill:url(#SVGID_11_);}
	.st6{clip-path:url(#SVGID_13_);fill-rule:evenodd;clip-rule:evenodd;fill:#9DC974;}
	.st7{clip-path:url(#SVGID_15_);fill-rule:evenodd;clip-rule:evenodd;}
</style>
<g>
	<defs>
		<path id="SVGID_3_" d="M94.3,3.5L60.5,62.2L26.6,3.5h-20c-6.2,10.7-6.1,23.9,0,34.7l33.9,58.7h30.9c5.5,0,10.5-2.9,13.3-7.7
			l29.5-51.1c6.2-10.7,6.2-23.9,0-34.6H94.3z"/>
	</defs>
	<clipPath id="SVGID_2_">
		<use xlink:href="#SVGID_3_"  style="overflow:visible;"/>
	</clipPath>
	
		<linearGradient id="SVGID_4_" gradientUnits="userSpaceOnUse" x1="73.3131" y1="104.6365" x2="74.3131" y2="104.6365" gradientTransform="matrix(0 254.3695 254.3695 0 -26555.8496 -18725.5703)">
		<stop  offset="0" style="stop-color:#9DC974"/>
		<stop  offset="0" style="stop-color:#9DC974"/>
		<stop  offset="1" style="stop-color:#598D39"/>
	</linearGradient>
	<rect x="0.5" y="3.5" style="clip-path:url(#SVGID_2_);fill:url(#SVGID_4_);" width="120" height="93.4"/>
</g>
<g>
	<defs>
		<path id="SVGID_6_" d="M6.8,38.3L40.7,97c6.4-10.3,5.8-24.1-0.1-34.5L6.7,3.6C0.5,14.3,0.5,27.6,6.8,38.3"/>
	</defs>
	<clipPath id="SVGID_5_">
		<use xlink:href="#SVGID_6_"  style="overflow:visible;"/>
	</clipPath>
	
		<linearGradient id="SVGID_7_" gradientUnits="userSpaceOnUse" x1="73.2473" y1="105.3296" x2="74.2473" y2="105.3296" gradientTransform="matrix(0 -317.0397 -317.0397 0 33417.4453 23431.1016)">
		<stop  offset="0" style="stop-color:#9DC974"/>
		<stop  offset="0" style="stop-color:#9DC974"/>
		<stop  offset="1" style="stop-color:#598D39"/>
	</linearGradient>
	<rect x="0.5" y="3.6" style="clip-path:url(#SVGID_5_);fill:url(#SVGID_7_);" width="46.5" height="93.4"/>
</g>
<g>
	<defs>
		<path id="SVGID_9_" d="M94.4,3.6L60.5,62.3c4.4,7.7,15.5,7.7,20,0l33.9-58.7H94.4z"/>
	</defs>
	<clipPath id="SVGID_8_">
		<use xlink:href="#SVGID_9_"  style="overflow:visible;"/>
	</clipPath>
	
		<linearGradient id="SVGID_10_" gradientUnits="userSpaceOnUse" x1="73.3439" y1="104.3119" x2="74.3439" y2="104.3119" gradientTransform="matrix(0 137.9673 137.9673 0 -14304.2158 -10152.2354)">
		<stop  offset="0" style="stop-color:#9DC974"/>
		<stop  offset="0" style="stop-color:#9DC974"/>
		<stop  offset="1" style="stop-color:#598D39"/>
	</linearGradient>
	<rect x="60.5" y="3.6" style="clip-path:url(#SVGID_8_);fill:url(#SVGID_10_);" width="53.8" height="66.4"/>
</g>
<g>
	<defs>
		<rect id="SVGID_12_" x="-24.6" y="-30.1" width="665" height="144.4"/>
	</defs>
	<clipPath id="SVGID_11_">
		<use xlink:href="#SVGID_12_"  style="overflow:visible;"/>
	</clipPath>
	<path style="clip-path:url(#SVGID_11_);fill-rule:evenodd;clip-rule:evenodd;fill:#9DC974;" d="M60.5,62.3c1,1.7,2.3,3.1,4,4
		c1.6,1,3.5,1.5,5.4,1.6c1.9,0.1,3.8-0.3,5.5-1.1c1.7-0.8,3.2-2.1,4.3-3.6c0.5-0.8,1-1.6,1.5-2.4l1.4-2.5l2.9-5l5.7-10l11.5-19.9
		l5.8-9.9l5.8-9.9l-5.7,10l-5.7,10L91.5,43.5l-5.8,9.9l-2.9,5l-1.4,2.5c-0.5,0.8-0.9,1.7-1.5,2.5c-1.1,1.6-2.7,2.9-4.4,3.7
		c-1.8,0.8-3.7,1.2-5.6,1.1c-1.9-0.1-3.8-0.7-5.5-1.7C62.8,65.4,61.4,63.9,60.5,62.3"/>
	<path style="clip-path:url(#SVGID_11_);fill-rule:evenodd;clip-rule:evenodd;fill:#9DC974;" d="M6.7,3.6l6.6,11.2l6.5,11.3l13,22.5
		l6.5,11.3l1.6,2.8c0.5,1,1,2,1.4,3c0.8,2,1.5,4.1,2,6.2c1,4.2,1.4,8.6,0.8,12.9c-0.6,4.3-2.1,8.5-4.4,12.1
		c2.3-3.7,3.7-7.9,4.2-12.2c0.6-4.3,0.2-8.7-0.9-12.9c-0.5-2.1-1.2-4.2-2-6.1c-0.4-1-0.9-2-1.4-2.9L39,60.1l-6.5-11.3L19.6,26.2
		l-6.4-11.3L6.7,3.6z"/>
</g>
<g>
	<path d="M172,94.1v-12h5.2c1.1,0,2,0.2,2.8,0.5c0.8,0.3,1.4,0.8,1.8,1.5c0.4,0.7,0.6,1.4,0.6,2.3c0,0.9-0.2,1.7-0.6,2.3
		c-0.4,0.6-1,1.1-1.8,1.5c-0.8,0.4-1.7,0.5-2.8,0.5h-3.6l1.3-1.3v4.6H172z M174.7,89.8l-1.3-1.3h3.5c0.8,0,1.5-0.2,1.9-0.5
		c0.4-0.4,0.6-0.9,0.6-1.5c0-0.7-0.2-1.2-0.6-1.5s-1.1-0.5-1.9-0.5h-3.5l1.3-1.3V89.8z"/>
	<path d="M188.7,94.1v-12h2.8v12H188.7z"/>
	<path d="M202.6,94.3c-1,0-1.9-0.1-2.7-0.4c-0.9-0.3-1.6-0.6-2.1-1l0.9-2.1c0.5,0.4,1.1,0.7,1.8,0.9c0.7,0.2,1.4,0.4,2.1,0.4
		c0.5,0,1-0.1,1.3-0.2c0.3-0.1,0.6-0.3,0.7-0.5c0.2-0.2,0.2-0.4,0.2-0.7c0-0.3-0.1-0.6-0.4-0.8c-0.2-0.2-0.6-0.3-1-0.5
		c-0.4-0.1-0.9-0.2-1.4-0.3c-0.5-0.1-1-0.2-1.5-0.4c-0.5-0.2-0.9-0.4-1.4-0.6c-0.4-0.3-0.7-0.6-1-1c-0.2-0.4-0.4-0.9-0.4-1.6
		c0-0.7,0.2-1.3,0.5-1.9c0.4-0.6,0.9-1,1.7-1.4c0.7-0.3,1.7-0.5,2.8-0.5c0.7,0,1.5,0.1,2.2,0.3c0.7,0.2,1.4,0.4,1.9,0.8l-0.9,2.1
		c-0.5-0.3-1.1-0.5-1.6-0.7c-0.6-0.2-1.1-0.2-1.6-0.2c-0.5,0-1,0.1-1.3,0.2c-0.3,0.1-0.6,0.3-0.7,0.5c-0.2,0.2-0.2,0.4-0.2,0.7
		c0,0.3,0.1,0.6,0.4,0.8c0.2,0.2,0.6,0.3,1,0.5c0.4,0.1,0.9,0.2,1.4,0.3s1,0.2,1.5,0.4c0.5,0.2,0.9,0.4,1.3,0.6c0.4,0.2,0.7,0.6,1,1
		c0.3,0.4,0.4,0.9,0.4,1.6c0,0.7-0.2,1.3-0.6,1.9c-0.4,0.6-0.9,1-1.7,1.4S203.7,94.3,202.6,94.3z"/>
	<path d="M219.7,94.3c-0.9,0-1.8-0.2-2.6-0.5s-1.5-0.7-2.1-1.3c-0.6-0.6-1-1.2-1.4-2c-0.3-0.8-0.5-1.6-0.5-2.5
		c0-0.9,0.2-1.7,0.5-2.5c0.3-0.7,0.8-1.4,1.4-2c0.6-0.6,1.3-1,2.1-1.3c0.8-0.3,1.7-0.5,2.6-0.5c0.9,0,1.8,0.2,2.6,0.5
		c0.8,0.3,1.5,0.7,2.1,1.3c0.6,0.6,1,1.2,1.4,2c0.3,0.8,0.5,1.6,0.5,2.5c0,0.9-0.2,1.7-0.5,2.5c-0.3,0.8-0.8,1.4-1.4,2
		c-0.6,0.6-1.3,1-2.1,1.3C221.5,94.1,220.6,94.3,219.7,94.3z M219.7,91.9c0.5,0,1-0.1,1.5-0.3s0.8-0.5,1.2-0.8
		c0.3-0.3,0.6-0.8,0.8-1.2s0.3-1,0.3-1.6c0-0.6-0.1-1.1-0.3-1.6s-0.5-0.9-0.8-1.2c-0.3-0.3-0.7-0.6-1.2-0.8s-0.9-0.3-1.5-0.3
		s-1,0.1-1.5,0.3s-0.8,0.5-1.2,0.8c-0.3,0.3-0.6,0.8-0.8,1.2s-0.3,1-0.3,1.6c0,0.6,0.1,1.1,0.3,1.6s0.4,0.9,0.8,1.2
		c0.3,0.3,0.7,0.6,1.2,0.8S219.1,91.9,219.7,91.9z"/>
	<path d="M236.5,94.3c-1,0-1.9-0.1-2.7-0.4c-0.9-0.3-1.6-0.6-2.1-1l0.9-2.1c0.5,0.4,1.1,0.7,1.8,0.9c0.7,0.2,1.4,0.4,2.1,0.4
		c0.5,0,1-0.1,1.3-0.2c0.3-0.1,0.6-0.3,0.7-0.5c0.2-0.2,0.2-0.4,0.2-0.7c0-0.3-0.1-0.6-0.4-0.8c-0.2-0.2-0.6-0.3-1-0.5
		c-0.4-0.1-0.9-0.2-1.4-0.3c-0.5-0.1-1-0.2-1.5-0.4c-0.5-0.2-0.9-0.4-1.4-0.6c-0.4-0.3-0.7-0.6-1-1c-0.2-0.4-0.4-0.9-0.4-1.6
		c0-0.7,0.2-1.3,0.5-1.9c0.4-0.6,0.9-1,1.7-1.4c0.7-0.3,1.7-0.5,2.8-0.5c0.7,0,1.5,0.1,2.2,0.3c0.7,0.2,1.4,0.4,1.9,0.8l-0.9,2.1
		c-0.5-0.3-1.1-0.5-1.6-0.7c-0.6-0.2-1.1-0.2-1.6-0.2c-0.5,0-1,0.1-1.3,0.2c-0.3,0.1-0.6,0.3-0.7,0.5c-0.2,0.2-0.2,0.4-0.2,0.7
		c0,0.3,0.1,0.6,0.4,0.8c0.2,0.2,0.6,0.3,1,0.5c0.4,0.1,0.9,0.2,1.4,0.3s1,0.2,1.5,0.4c0.5,0.2,0.9,0.4,1.3,0.6c0.4,0.2,0.7,0.6,1,1
		c0.3,0.4,0.4,0.9,0.4,1.6c0,0.7-0.2,1.3-0.6,1.9c-0.4,0.6-0.9,1-1.7,1.4S237.7,94.3,236.5,94.3z"/>
	<path d="M257.5,94.1l-5.2-12h3l4.5,10.6h-1.8l4.6-10.6h2.7l-5.2,12H257.5z"/>
	<path d="M271,94.1v-12h2.8v12H271z"/>
	<path d="M280.9,94.1v-12h2.3l7,8.6h-1.1v-8.6h2.7v12h-2.3l-7-8.6h1.1v8.6H280.9z"/>
	<path d="M298.9,81.1l2.3-2.5h2.8l-3.1,2.5H298.9z M299,94.1v-12h2.8v12H299z"/>
	<path d="M309,94.1v-12h2.8v9.7h5.9v2.3H309z"/>
	<path d="M323.6,94.1v-12h2.8v12H323.6z"/>
	<path d="M339.3,94.3c-0.9,0-1.8-0.2-2.6-0.5c-0.8-0.3-1.5-0.7-2-1.3c-0.6-0.6-1-1.2-1.4-2c-0.3-0.8-0.5-1.6-0.5-2.5
		c0-0.9,0.2-1.7,0.5-2.5c0.3-0.8,0.8-1.4,1.4-2c0.6-0.6,1.3-1,2.1-1.3s1.6-0.5,2.6-0.5c1,0,2,0.2,2.8,0.5c0.8,0.4,1.5,0.9,2.1,1.6
		l-1.8,1.6c-0.4-0.5-0.8-0.8-1.4-1.1c-0.5-0.2-1.1-0.4-1.6-0.4c-0.6,0-1.1,0.1-1.5,0.3s-0.9,0.5-1.2,0.8c-0.3,0.3-0.6,0.7-0.8,1.2
		c-0.2,0.5-0.3,1-0.3,1.6c0,0.6,0.1,1.1,0.3,1.6c0.2,0.5,0.5,0.9,0.8,1.2c0.3,0.3,0.7,0.6,1.2,0.8s1,0.3,1.5,0.3
		c0.6,0,1.1-0.1,1.6-0.4s1-0.6,1.4-1.1l1.8,1.6c-0.6,0.7-1.3,1.2-2.1,1.6C341.2,94.1,340.3,94.3,339.3,94.3z"/>
	<path d="M356.1,94.3c-0.9,0-1.8-0.2-2.6-0.5s-1.5-0.7-2.1-1.3c-0.6-0.6-1-1.2-1.4-2c-0.3-0.8-0.5-1.6-0.5-2.5
		c0-0.9,0.2-1.7,0.5-2.5c0.3-0.7,0.8-1.4,1.4-2c0.6-0.6,1.3-1,2.1-1.3c0.8-0.3,1.7-0.5,2.6-0.5s1.8,0.2,2.6,0.5
		c0.8,0.3,1.5,0.7,2.1,1.3c0.6,0.6,1,1.2,1.4,2c0.3,0.8,0.5,1.6,0.5,2.5c0,0.9-0.2,1.7-0.5,2.5c-0.3,0.8-0.8,1.4-1.4,2
		c-0.6,0.6-1.3,1-2.1,1.3C357.9,94.1,357.1,94.3,356.1,94.3z M356.1,91.9c0.5,0,1-0.1,1.5-0.3c0.4-0.2,0.8-0.5,1.2-0.8
		s0.6-0.8,0.8-1.2c0.2-0.5,0.3-1,0.3-1.6c0-0.6-0.1-1.1-0.3-1.6c-0.2-0.5-0.5-0.9-0.8-1.2s-0.7-0.6-1.2-0.8
		c-0.4-0.2-0.9-0.3-1.5-0.3c-0.5,0-1,0.1-1.5,0.3c-0.5,0.2-0.8,0.5-1.2,0.8c-0.3,0.3-0.6,0.8-0.8,1.2c-0.2,0.5-0.3,1-0.3,1.6
		c0,0.6,0.1,1.1,0.3,1.6c0.2,0.5,0.4,0.9,0.8,1.2c0.3,0.3,0.7,0.6,1.2,0.8C355.1,91.8,355.6,91.9,356.1,91.9z"/>
	<path d="M373,94.3c-1,0-1.9-0.1-2.7-0.4c-0.9-0.3-1.6-0.6-2.1-1l0.9-2.1c0.5,0.4,1.1,0.7,1.8,0.9c0.7,0.2,1.4,0.4,2.1,0.4
		c0.5,0,1-0.1,1.3-0.2s0.6-0.3,0.7-0.5c0.2-0.2,0.2-0.4,0.2-0.7c0-0.3-0.1-0.6-0.4-0.8s-0.6-0.3-1-0.5c-0.4-0.1-0.9-0.2-1.4-0.3
		c-0.5-0.1-1-0.2-1.5-0.4s-0.9-0.4-1.4-0.6c-0.4-0.3-0.7-0.6-1-1c-0.2-0.4-0.4-0.9-0.4-1.6c0-0.7,0.2-1.3,0.5-1.9
		c0.4-0.6,0.9-1,1.7-1.4s1.7-0.5,2.8-0.5c0.7,0,1.5,0.1,2.2,0.3c0.7,0.2,1.4,0.4,1.9,0.8l-0.9,2.1c-0.5-0.3-1.1-0.5-1.6-0.7
		s-1.1-0.2-1.6-0.2c-0.5,0-1,0.1-1.3,0.2c-0.3,0.1-0.6,0.3-0.7,0.5c-0.2,0.2-0.2,0.4-0.2,0.7c0,0.3,0.1,0.6,0.4,0.8
		c0.2,0.2,0.6,0.3,1,0.5c0.4,0.1,0.9,0.2,1.4,0.3s1,0.2,1.5,0.4c0.5,0.2,0.9,0.4,1.3,0.6s0.7,0.6,1,1s0.4,0.9,0.4,1.6
		c0,0.7-0.2,1.3-0.6,1.9c-0.4,0.6-0.9,1-1.7,1.4S374.1,94.3,373,94.3z"/>
	<path d="M393.1,91.8h6.5v2.2h-9.2v-12h9v2.2h-6.3V91.8z M392.9,86.9h5.7v2.2h-5.7V86.9z"/>
	<path d="M412.3,94.1v-12h5.2c1.1,0,2,0.2,2.8,0.5c0.8,0.3,1.4,0.8,1.8,1.5c0.4,0.7,0.6,1.4,0.6,2.3c0,0.9-0.2,1.7-0.6,2.3
		c-0.4,0.6-1,1.1-1.8,1.5c-0.8,0.3-1.7,0.5-2.8,0.5h-3.6l1.3-1.2v4.6H412.3z M415.1,89.8l-1.3-1.3h3.5c0.8,0,1.5-0.2,1.9-0.5
		c0.4-0.4,0.6-0.9,0.6-1.5c0-0.7-0.2-1.2-0.6-1.5c-0.4-0.4-1.1-0.5-1.9-0.5h-3.5l1.3-1.3V89.8z M419.9,94.1l-3-4.4h3l3,4.4H419.9z"
		/>
	<path d="M434.9,94.3c-0.9,0-1.8-0.2-2.6-0.5s-1.5-0.7-2.1-1.3c-0.6-0.6-1-1.2-1.4-2c-0.3-0.8-0.5-1.6-0.5-2.5
		c0-0.9,0.2-1.7,0.5-2.5c0.3-0.7,0.8-1.4,1.4-2c0.6-0.6,1.3-1,2.1-1.3c0.8-0.3,1.7-0.5,2.6-0.5s1.8,0.2,2.6,0.5
		c0.8,0.3,1.5,0.7,2.1,1.3c0.6,0.6,1,1.2,1.4,2c0.3,0.8,0.5,1.6,0.5,2.5c0,0.9-0.2,1.7-0.5,2.5c-0.3,0.8-0.8,1.4-1.4,2
		c-0.6,0.6-1.3,1-2.1,1.3C436.8,94.1,435.9,94.3,434.9,94.3z M434.9,91.9c0.5,0,1-0.1,1.5-0.3c0.4-0.2,0.8-0.5,1.2-0.8
		s0.6-0.8,0.8-1.2c0.2-0.5,0.3-1,0.3-1.6c0-0.6-0.1-1.1-0.3-1.6c-0.2-0.5-0.5-0.9-0.8-1.2s-0.7-0.6-1.2-0.8
		c-0.4-0.2-0.9-0.3-1.5-0.3c-0.5,0-1,0.1-1.5,0.3c-0.5,0.2-0.8,0.5-1.2,0.8c-0.3,0.3-0.6,0.8-0.8,1.2c-0.2,0.5-0.3,1-0.3,1.6
		c0,0.6,0.1,1.1,0.3,1.6c0.2,0.5,0.4,0.9,0.8,1.2c0.3,0.3,0.7,0.6,1.2,0.8C433.9,91.8,434.4,91.9,434.9,91.9z"/>
	<path d="M447.9,94.1v-12h5.4c1.3,0,2.4,0.2,3.4,0.7c1,0.5,1.8,1.2,2.3,2.1s0.8,2,0.8,3.2c0,1.2-0.3,2.3-0.8,3.2
		c-0.6,0.9-1.3,1.6-2.3,2.1c-1,0.5-2.1,0.7-3.4,0.7H447.9z M450.7,91.8h2.5c0.8,0,1.5-0.2,2.1-0.5c0.6-0.3,1-0.7,1.4-1.3
		s0.5-1.2,0.5-2c0-0.8-0.2-1.4-0.5-2c-0.3-0.6-0.8-1-1.4-1.3c-0.6-0.3-1.3-0.5-2.1-0.5h-2.5V91.8z"/>
	<path d="M464.7,94.1l5.3-12h2.7l5.3,12h-2.9l-4.4-10.6h1.1l-4.4,10.6H464.7z M467.4,91.5l0.7-2.1h6.2l0.7,2.1H467.4z"/>
	<path d="M483.7,94.1v-12h5.2c1.1,0,2,0.2,2.8,0.5c0.8,0.3,1.4,0.8,1.8,1.5c0.4,0.7,0.6,1.4,0.6,2.3c0,0.9-0.2,1.7-0.6,2.3
		c-0.4,0.6-1,1.1-1.8,1.5c-0.8,0.4-1.7,0.5-2.8,0.5h-3.6l1.3-1.3v4.6H483.7z M486.5,89.8l-1.3-1.3h3.5c0.8,0,1.5-0.2,1.9-0.5
		c0.4-0.4,0.6-0.9,0.6-1.5c0-0.7-0.2-1.2-0.6-1.5c-0.4-0.4-1.1-0.5-1.9-0.5h-3.5l1.3-1.3V89.8z"/>
	<path d="M503.2,91.8h6.5v2.2h-9.2v-12h9v2.2h-6.3V91.8z M503,86.9h5.7v2.2H503V86.9z M503.4,81.1l2.3-2.5h2.8l-3.1,2.5H503.4z"/>
	<path d="M520.2,94.3c-1,0-1.9-0.1-2.7-0.4c-0.9-0.3-1.6-0.6-2.1-1l0.9-2.1c0.5,0.4,1.1,0.7,1.8,0.9c0.7,0.2,1.4,0.4,2.1,0.4
		c0.5,0,1-0.1,1.3-0.2s0.6-0.3,0.7-0.5c0.2-0.2,0.2-0.4,0.2-0.7c0-0.3-0.1-0.6-0.4-0.8s-0.6-0.3-1-0.5c-0.4-0.1-0.9-0.2-1.4-0.3
		c-0.5-0.1-1-0.2-1.5-0.4s-0.9-0.4-1.4-0.6c-0.4-0.3-0.7-0.6-1-1c-0.2-0.4-0.4-0.9-0.4-1.6c0-0.7,0.2-1.3,0.5-1.9
		c0.4-0.6,0.9-1,1.7-1.4s1.7-0.5,2.8-0.5c0.7,0,1.5,0.1,2.2,0.3c0.7,0.2,1.4,0.4,1.9,0.8l-0.9,2.1c-0.5-0.3-1.1-0.5-1.6-0.7
		s-1.1-0.2-1.6-0.2c-0.5,0-1,0.1-1.3,0.2c-0.3,0.1-0.6,0.3-0.7,0.5c-0.2,0.2-0.2,0.4-0.2,0.7c0,0.3,0.1,0.6,0.4,0.8
		c0.2,0.2,0.6,0.3,1,0.5c0.4,0.1,0.9,0.2,1.4,0.3s1,0.2,1.5,0.4c0.5,0.2,0.9,0.4,1.3,0.6s0.7,0.6,1,1s0.4,0.9,0.4,1.6
		c0,0.7-0.2,1.3-0.6,1.9c-0.4,0.6-0.9,1-1.7,1.4S521.3,94.3,520.2,94.3z"/>
</g>
<g>
	<defs>
		<rect id="SVGID_14_" x="-24.6" y="-30.1" width="665" height="144.4"/>
	</defs>
	<clipPath id="SVGID_13_">
		<use xlink:href="#SVGID_14_"  style="overflow:visible;"/>
	</clipPath>
	<polygon style="clip-path:url(#SVGID_13_);fill-rule:evenodd;clip-rule:evenodd;" points="166.5,50.1 148.4,6.2 136.8,6.2 
		161.3,63.7 171.5,63.7 196,6.2 184.2,6.2 	"/>
	<path style="clip-path:url(#SVGID_13_);fill-rule:evenodd;clip-rule:evenodd;" d="M210,4c-3.7,0-6.3,2.6-6.3,6.3
		c0,3.6,2.6,6.2,6.3,6.2c3.6,0,6.2-2.6,6.2-6.2C216.2,6.7,213.7,4,210,4"/>
	<rect x="204.8" y="21.9" style="clip-path:url(#SVGID_13_);fill-rule:evenodd;clip-rule:evenodd;" width="10.6" height="41.9"/>
	<path style="clip-path:url(#SVGID_13_);fill-rule:evenodd;clip-rule:evenodd;" d="M253.5,21.1c-5.6,0-10.5,2.1-13.7,6.1l-0.2-5.3
		h-10.2v41.9h10.6V39.1c0-5.4,3.9-9,9.8-9c5.9,0,9.8,3.6,9.8,9v24.6h10.6V37.4C270.2,27.6,263.6,21.1,253.5,21.1"/>
	<rect x="284" y="21.9" style="clip-path:url(#SVGID_13_);fill-rule:evenodd;clip-rule:evenodd;" width="10.6" height="41.9"/>
	<path style="clip-path:url(#SVGID_13_);fill-rule:evenodd;clip-rule:evenodd;" d="M289.3,4c-3.7,0-6.3,2.6-6.3,6.3
		c0,3.6,2.6,6.2,6.3,6.2c3.7,0,6.2-2.6,6.2-6.2C295.5,6.7,292.9,4,289.3,4"/>
	<rect x="308.8" y="6.2" style="clip-path:url(#SVGID_13_);fill-rule:evenodd;clip-rule:evenodd;" width="10.6" height="57.5"/>
	<polygon style="clip-path:url(#SVGID_13_);fill-rule:evenodd;clip-rule:evenodd;" points="335.2,63.7 346.1,63.7 346.1,40.6 
		367.9,40.6 367.9,31.6 346.1,31.6 346.1,15.3 371.4,15.3 371.4,6.2 335.2,6.2 	"/>
	<path style="clip-path:url(#SVGID_13_);fill-rule:evenodd;clip-rule:evenodd;" d="M401.6,21.1c-13.4,0-22.4,8.7-22.4,21.7
		c0,13,9,21.7,22.4,21.7c13.4,0,22.4-8.7,22.4-21.7C424,29.8,414.9,21.1,401.6,21.1 M401.6,55.4L401.6,55.4c-6.9,0-11.5-5-11.5-12.7
		c0-7.6,4.6-12.7,11.5-12.7c6.8,0,11.4,5,11.4,12.7C413,50.4,408.4,55.4,401.6,55.4"/>
	<path style="clip-path:url(#SVGID_13_);fill-rule:evenodd;clip-rule:evenodd;" d="M481.4,49.1V30.5h12.3v-8.6h-12.3V6.2h-10.6v45
		c0,7.9,5.2,13.2,12.9,13.2c3.7,0,7.5-0.6,10.6-1.9V54c-2.4,1-4.8,1.4-7.2,1.4C483.8,55.4,481.4,52.9,481.4,49.1"/>
	<path style="clip-path:url(#SVGID_13_);fill-rule:evenodd;clip-rule:evenodd;" d="M544,42.1c0-12.7-8.4-21-20.9-21
		c-12.6,0-20.9,8.8-20.9,22c0,12.9,8.5,21.4,21.4,21.4c7.9,0,14.5-3.6,18.3-9.2l-8.2-4.1c-2.5,3-6,5-10.3,5c-6.1,0-9.2-3.7-10-9.6
		h30.3C543.9,45.3,544,43.6,544,42.1 M513.4,39.4L513.4,39.4c0.9-6.4,4.1-10,9.7-10c5.7,0,9,3.7,9.8,10H513.4z"/>
	<path style="clip-path:url(#SVGID_13_);fill-rule:evenodd;clip-rule:evenodd;" d="M446.1,27.4l-0.2-5.6h-10.2v41.9h10.6V41.3
		c0-6.3,5.7-10.5,14.4-10.5v-9.7C454.4,21.3,449.3,23.5,446.1,27.4"/>
</g>
</svg>
